<svg xmlns="http://www.w3.org/2000/svg" xmlns:xlink="http://www.w3.org/1999/xlink" viewBox="0 0 1306.26 234.2"><defs><style>.cls-1{fill:none;}.cls-2{clip-path:url(#clip-path);}.cls-3{fill:#ff423b;}.cls-4,.cls-5,.cls-6{stroke:#ff423b;stroke-miterlimit:10;stroke-width:12px;}.cls-4{fill:url(#名称未設定グラデーション_7);}.cls-5{fill:url(#空);}.cls-6{fill:url(#空-2);}</style><clipPath id="clip-path"><circle class="cls-1" cx="130.65" cy="120.5" r="120.5"/></clipPath><linearGradient id="名称未設定グラデーション_7" x1="11.57" y1="176.5" x2="237.92" y2="176.5" gradientUnits="userSpaceOnUse"><stop offset="0.87" stop-color="#0075be"/><stop offset="0.99" stop-color="#005b97"/></linearGradient><linearGradient id="空" x1="0.7" y1="196.11" x2="241.7" y2="196.11" gradientUnits="userSpaceOnUse"><stop offset="0" stop-color="#cce0f4"/><stop offset="0.06" stop-color="#c3dcf2"/><stop offset="0.17" stop-color="#a9d2ee"/><stop offset="0.31" stop-color="#80c2e7"/><stop offset="0.46" stop-color="#47acde"/><stop offset="0.57" stop-color="#1e9cd7"/><stop offset="0.87" stop-color="#0075be"/><stop offset="0.99" stop-color="#005b97"/></linearGradient><linearGradient id="空-2" x1="21.02" y1="215.25" x2="247.37" y2="215.25" xlink:href="#空"/></defs><title>アセット 1</title><g id="レイヤー_2" data-name="レイヤー 2"><g id="レイヤー_1-2" data-name="レイヤー 1"><g class="cls-2"><path class="cls-3" d="M15.18,157.69a121.45,121.45,0,1,1,231.93-.13"/><line class="cls-4" x1="11.57" y1="163.5" x2="237.92" y2="189.49"/><line class="cls-5" x1="0.7" y1="210.28" x2="241.7" y2="181.93"/><line class="cls-6" x1="21.02" y1="202.25" x2="247.37" y2="228.24"/></g><path class="cls-3" d="M327,194.86,341.74,178c14.2,14.74,34,24.39,54.41,24.39,25.72,0,41.27-12.87,41.27-32.16,0-20.11-14.21-26.54-32.7-34.85L376.31,123c-18.22-7.78-39.93-21.71-39.93-50.39,0-30.28,26.27-52.26,61.91-52.26a80.57,80.57,0,0,1,57.89,24.39L443.05,60.59C431,49.33,416.51,42.1,398.29,42.1c-22.24,0-36.72,11.25-36.72,28.94,0,19,17.16,26.27,32.43,32.7l28.14,12.06c22.78,9.92,40.47,23.32,40.47,52.53,0,31.09-25.73,55.74-66.73,55.74A93.87,93.87,0,0,1,327,194.86Z"/><path class="cls-3" d="M490.74,182.8c0-31.62,27.61-47.44,89.52-54.4,0-18.76-6.17-36.72-30-36.72-16.88,0-32.16,7.77-43.68,15.54l-9.65-16.88c13.4-8.58,34-19,57.35-19,35.38,0,50.39,23.85,50.39,59.77v89.51h-20.1l-2.15-17.42h-.8c-13.94,11.52-30.29,20.9-48.24,20.9C509,224.07,490.74,209.07,490.74,182.8Zm89.52,2.41V144.48c-49,5.89-65.66,18-65.66,36.71,0,16.62,11.25,23.32,25.72,23.32C554.53,204.51,566.05,197.81,580.26,185.21Z"/><path class="cls-3" d="M641.36,75.06h20.1l2.14,21.18h.81C677,82.3,692.28,71.31,709.7,71.31c22.24,0,34.31,10.72,40.2,27.87,15-16.34,30.29-27.87,48-27.87,30,0,44.23,19.83,44.23,57.09v92.19H817.71v-89c0-27.33-8.58-38.86-27.07-38.86-11.26,0-23,7.24-36.72,22.25V220.59H729.53v-89c0-27.33-8.57-38.86-27.07-38.86-11,0-23.31,7.24-36.71,22.25V220.59H641.36Z"/><path class="cls-3" d="M876.39,167.26V75.06h24.39v89.25c0,27.07,8,38.59,27.34,38.59,15,0,25.46-7.23,39.4-24.65V75.06H991.9V220.59H971.54l-1.88-22.78h-.8c-13.67,15.81-28.14,26.26-48.25,26.26C890.06,224.07,876.39,204.24,876.39,167.26Z"/><path class="cls-3" d="M1030.22,75.06h20.1l2.15,26.54h.8c10.19-18.5,24.93-30.29,41.28-30.29,6.43,0,11,.81,15.54,3.22L1105.53,96c-4.82-1.88-8.3-2.41-14.2-2.41-12.06,0-27.07,8.57-36.72,33.5v93.53h-24.39Z"/><path class="cls-3" d="M1124.56,182.8c0-31.62,27.6-47.44,89.51-54.4,0-18.76-6.16-36.72-30-36.72-16.88,0-32.16,7.77-43.68,15.54l-9.65-16.88c13.4-8.58,34-19,57.35-19,35.38,0,50.39,23.85,50.39,59.77v89.51h-20.1l-2.15-17.42h-.8c-13.94,11.52-30.28,20.9-48.24,20.9C1142.78,224.07,1124.56,209.07,1124.56,182.8Zm89.51,2.41V144.48c-49,5.89-65.66,18-65.66,36.71,0,16.62,11.26,23.32,25.73,23.32C1188.34,204.51,1199.87,197.81,1214.07,185.21Z"/><path class="cls-3" d="M1272.49,29.23c0-9.91,7.24-15.81,16.89-15.81s16.88,5.9,16.88,15.81c0,9.12-7.24,15.82-16.88,15.82S1272.49,38.35,1272.49,29.23Zm4.56,45.83h24.39V220.59h-24.39Z"/></g></g></svg>