<svg height="56" viewBox="0 0 330 56" width="330" xmlns="http://www.w3.org/2000/svg"><g fill="none" fill-rule="nonzero"><g fill="#174a5b" transform="translate(112.648276 11)"><path d="m.63144828 2.10868966c-.10655852-.25600529-.06958663-.54929513.09717227-.77084624.16675889-.2215511.43836759-.3382326.71386221-.30667101h5.27172414c.37573673.02376958.69918628.27381214.81682758.63144828l3.87558622 15.27062071h.1795862l6.9806897-15.85572416c.1379888-.29920992.435237-.49287162.7646896-.49820689h.8110345c.337435-.02288001.6492855.18029531.7646896.49820689l6.9864828 15.85572416h.1795862l3.8755862-15.27062071c.1154858-.35673687.4368709-.60695817.8110345-.63144828h5.2717241c.2754947-.03156159.5471034.08511991.7138622.30667101.1667589.22155111.2037308.51484095.0971723.77084624l-8.515862 30.28055174c-.1001527.3551998-.4137405.6083929-.782069.6314483h-.7531035c-.325417-.0180817-.6166715-.2078385-.7646896-.4982069l-8.2435862-18.4278621h-.1390345l-8.1972414 18.4278621c-.1489231.2895532-.4396527.4789679-.7646896.4982069h-.72413797c-.3791943-.0108886-.70750162-.2664993-.81103449-.6314483z"/><path d="m42.225931 1.88855172c-.0015432-.22685676.0874954-.44495228.2473664-.6059108.159871-.16095853.3773578-.25147376.6042198-.25146851h18.6537931c.4644441.0125571.8343767.39276553.8342069.85737931v4.90675862c0 .22739114-.0903307.44546892-.2511205.60625873-.1607899.16078981-.3788676.25112059-.6062588.25112059h-12.4667586v5.59034484h10.2711724c.4649975.0148551.8393721.3867001.8573793.8515862v4.9125517c0 .4735175-.3838618.8573793-.8573793.8573793h-10.2711724v6.0827586h12.4783448c.4689867.0063383.845836.3883499.8457931.8573794v4.9067586c0 .4735175-.3838618.8573793-.8573793.8573793h-18.6537931c-.226862.0000052-.4443488-.09051-.6042198-.2514685s-.2489097-.3790541-.2473664-.6059108z"/><path d="m68.150069 1.88855172c0-.22739113.0903307-.44546891.2511206-.60625872.1607898-.16078981.3788675-.25112059.6062587-.25112059h10.4971034c5.318069 0 9.7092414 3.64965518 9.7092414 8.37682759 0 3.4758621-3.1051034 5.9958621-5.2137931 7.1197241 2.3867586.9906207 6.0364138 3.2035862 6.0364138 7.3456552 0 5.0457931-4.4606897 8.6896552-9.8193104 8.6896552h-11.2096551c-.2273912 0-.4454689-.0903308-.6062587-.2511206-.1607899-.1607898-.2511206-.3788676-.2511206-.6062587zm10.5434482 11.94726728c1.7643585-.0317598 3.1734242-1.4813728 3.1572414-3.2480941-.0011383-.82859196-.3375712-1.6213605-.9325033-2.19734496-.594932-.57598445-1.3975836-.88602248-2.2247381-.85934352h-3.5106206v6.30478258zm.5793104 12.2910776c.8665514-.006124 1.6951759-.3562446 2.3035745-.9733346.6083986-.6170899.946731-1.4505971.9405634-2.3171482 0-1.8016552-1.9348965-3.1514483-3.6902069-3.1514483h-3.6496552v6.4419311z"/><path d="m108.493241.57931035c4.048395-.1198426 7.97574 1.38890887 10.902621 4.18841379.187819.15271518.300626.37903318.309503.62094072.008878.24190754-.087037.47588504-.263158.64195583l-3.510621 3.64965517c-.148335.15253667-.352058.23859307-.564827.23859307s-.416493-.0860564-.564828-.23859307c-1.677434-1.48789546-3.84053-2.31193201-6.082759-2.31724138-5.092138 0-8.8286892 4.24055172-8.8286892 9.26896552s3.8060692 9.182069 8.8750342 9.182069c2.20186-.0040504 4.334552-.7695272 6.036414-2.1666207.345752-.2694116.835492-.249822 1.158621.0463448l3.516414 3.7423448c.300983.3566552.2809.883829-.046345 1.2165518-2.927494 2.8407921-6.858347 4.4106348-10.93738 4.368-5.795094 0-11.1499819-3.0916459-14.0475291-8.1103448s-2.8975472-11.2019909 0-16.2206898c2.8975472-5.01869888 8.2524351-8.11034484 14.0475291-8.11034475z"/><path d="m120.542897 31.3986207 14.100413-30.32110346c.148018-.29036849.439273-.4801252.76469-.49820689h.451862c.325417.01808169.616672.2078384.76469.49820689l14.106207 30.32110346c.13015.2569593.112007.5640658-.047492.8039141s-.435692.3753512-.722991.3547066h-4.999448c-.811035 0-1.158621-.2664828-1.575725-1.1238621l-1.622069-3.5627586h-12.258206l-1.622069 3.6091034c-.254717.6690232-.906619 1.1020724-1.622069 1.0775173h-4.953104c-.287615.0222283-.564644-.1133544-.723547-.3541168-.158903-.2407623-.174656-.5487874-.041142-.8045039zm18.537931-9.6397241-3.423725-7.4383449h-.046344l-3.37738 7.4383449z"/><path d="m158.151724 1.29765517c.067218-.3983936.401789-.69685984.805242-.71834482h.724137c.320544.01330177.614518.1819045.787863.45186206l10.427586 19.46482759h.092689l10.427587-19.46482759c.176564-.26941066.47186-.43753546.793655-.45186206h.718345c.405667.01884694.743333.31792263.811034.71834482l5.11531 30.28055173c.053041.2516248-.014638.5135762-.182926.7080175-.168289.1944412-.417822.2989984-.674453.2826032h-5.341241c-.411783-.0139179-.762023-.3045929-.851586-.7067586l-2.027587-13.9034483h-.092689l-7.571587 14.5638621c-.164828.2747221-.446793.4584268-.764689.4982069h-.811035c-.321446-.0298371-.607522-.2162198-.764689-.4982069l-7.612138-14.5986207h-.09269l-1.981241 13.9034482c-.075374.4147563-.435833.7167629-.85738.7183449h-5.318069c-.255918.0139995-.503905-.0912462-.671634-.2850421-.16773-.1937959-.236312-.4543157-.185745-.7055786z"/><path d="m193.29269 1.88855172c0-.47351751.383861-.85737931.857379-.85737931h10.856276c5.533332-.00983623 10.040146 4.44267917 10.097379 9.97572419-.009186 5.5495472-4.478634 10.060307-10.027862 10.1205517h-4.750345v10.584c-.015032.4671492-.39023.8423469-.857379.8573793h-5.318069c-.473518 0-.857379-.3838618-.857379-.8573793zm11.308138 12.65793108c.942765.006172 1.849037-.3640211 2.517858-1.0284924.668822-.6644713 1.04492-1.5683085 1.0449-2.5110938-.027179-.9158923-.418523-1.78312159-1.0873-2.40948811s-1.55975-.960137-2.475458-.92733952h-4.275311v6.89379313z"/></g><path d="m103.220639 12h-11.3632715l-4.2287766 15.0516004-4.6868356-15.0516004h-10.5243315l-3.1793505 16.4332689-2.9498197-16.4332689h-11.3612664l-4.2317836 15.0516004-4.6888403-15.0516004h-10.5243314l-2.3714827 12.3232046c-1.7831225-7.8507519-8.9907861-12.3232046-19.8458823-12.3232046h-13.2646669v32h16.0741623c5.161934 0 10.9402931-1.6152742 14.3882646-5.9299931l-1.1406371 5.9299931h11.2389837l2.3173576-13.4303363 3.9371023 13.4303363h8.7883179l3.3527513-13.3574593 2.0417204 13.3574593h16.4971401l2.3163553-13.4303363 3.9340953 13.4303363h8.7903226l3.3507467-13.3574593 2.0397156 13.3574593h11.0736014zm-89.0588981 20.8987334v-9.9731703c2.4306194 0 6.1251609.1088164 6.1251609 4.9656205.0010023 4.9646222-3.5532147 5.0075498-6.1251609 5.0075498z" fill="#000"/></g></svg>