<svg id="レイヤー_1" data-name="レイヤー 1" xmlns="http://www.w3.org/2000/svg" viewBox="0 0 382.38 47.17"><defs><style>.cls-1{fill:#163262;}.cls-2{fill:#040000;}</style></defs><title>logo</title><path class="cls-1" d="M172.83,239h-2.69V196.43H154.92v-2.49H188v2.49H172.83V239Z" transform="translate(-154.92 -192.91)"/><path class="cls-1" d="M218.32,236.56V239H192.58V193.94h25.74v2.52h-23V214.7h21.89v2.49H195.3v19.37h23Z" transform="translate(-154.92 -192.91)"/><path class="cls-1" d="M225.54,212.41v8.23a24.12,24.12,0,0,0,.86,6.63,16.82,16.82,0,0,0,2.57,5.36,11.52,11.52,0,0,0,4.5,3.65,15,15,0,0,0,6.43,1.31,13.68,13.68,0,0,0,9.5-3.23,10.27,10.27,0,0,0,3.6-7.94h2.65v0.1a12.2,12.2,0,0,1-1.08,5,14,14,0,0,1-3,4.33,14.2,14.2,0,0,1-5,3.07,18.7,18.7,0,0,1-6.7,1.16,18.51,18.51,0,0,1-7.66-1.49,13.38,13.38,0,0,1-5.34-4.2,19,19,0,0,1-3-6.22,28.13,28.13,0,0,1-1-7.8v-7.66a27.55,27.55,0,0,1,1-7.78,19.32,19.32,0,0,1,3.08-6.27,13.87,13.87,0,0,1,5.31-4.23,17.49,17.49,0,0,1,7.48-1.53,17.79,17.79,0,0,1,6.82,1.26,13.56,13.56,0,0,1,4.93,3.28,15.4,15.4,0,0,1,2.87,4.41,12.25,12.25,0,0,1,1,4.81v0.1H252.7a9.75,9.75,0,0,0-.86-3.93,12.78,12.78,0,0,0-2.44-3.65,11.8,11.8,0,0,0-4.11-2.74,15.28,15.28,0,0,0-11.82.27,11.71,11.71,0,0,0-4.46,3.67,17,17,0,0,0-2.59,5.39A23.85,23.85,0,0,0,225.54,212.41Z" transform="translate(-154.92 -192.91)"/><path class="cls-1" d="M294,239H291.3V216.63H265.12V239h-2.72V193.94h2.72v20.2H291.3v-20.2H294V239Z" transform="translate(-154.92 -192.91)"/><path d="M304.2,205.73a2.45,2.45,0,0,1,.73-1.77,2.37,2.37,0,0,1,1.76-.75,2.52,2.52,0,0,1,1.82.75,2.4,2.4,0,0,1,.76,1.77,2.44,2.44,0,0,1-.76,1.81,2.52,2.52,0,0,1-1.82.75,2.37,2.37,0,0,1-1.76-.75A2.49,2.49,0,0,1,304.2,205.73Zm0,24.45a2.49,2.49,0,0,1,.73-1.81,2.37,2.37,0,0,1,1.76-.75,2.52,2.52,0,0,1,1.82.75,2.44,2.44,0,0,1,.76,1.81,2.4,2.4,0,0,1-.76,1.77,2.52,2.52,0,0,1-1.82.75,2.37,2.37,0,0,1-1.76-.75A2.45,2.45,0,0,1,304.2,230.17Z" transform="translate(-154.92 -192.91)"/><path d="M315.89,205.73a2.45,2.45,0,0,1,.73-1.77,2.37,2.37,0,0,1,1.76-.75,2.52,2.52,0,0,1,1.82.75,2.4,2.4,0,0,1,.76,1.77,2.44,2.44,0,0,1-.76,1.81,2.52,2.52,0,0,1-1.82.75,2.37,2.37,0,0,1-1.76-.75A2.49,2.49,0,0,1,315.89,205.73Zm0,24.45a2.49,2.49,0,0,1,.73-1.81,2.37,2.37,0,0,1,1.76-.75,2.52,2.52,0,0,1,1.82.75,2.44,2.44,0,0,1,.76,1.81,2.4,2.4,0,0,1-.76,1.77,2.52,2.52,0,0,1-1.82.75,2.37,2.37,0,0,1-1.76-.75A2.45,2.45,0,0,1,315.89,230.17Z" transform="translate(-154.92 -192.91)"/><path class="cls-2" d="M432.17,206.14A12.14,12.14,0,0,1,420,218.26H407.87V239h-2.7V194H420A12.14,12.14,0,0,1,432.17,206.14Zm-2.52-.06a9.68,9.68,0,0,0-9.66-9.6H407.87v19.26H420A9.62,9.62,0,0,0,429.65,206.08Z" transform="translate(-154.92 -192.91)"/><path class="cls-2" d="M489,218.26H478.3V239h-2.7V194h14.82a12.13,12.13,0,0,1,1.44,24.18L503.44,239h-3Zm-10.74-2.52h12.12a9.63,9.63,0,1,0,0-19.26H478.3v19.26Z" transform="translate(-154.92 -192.91)"/><polygon class="cls-2" points="211.06 1.11 207.94 1.11 222.04 22.07 223.56 19.81 211.06 1.11"/><polygon class="cls-2" points="226 23.49 241.06 1.11 237.94 1.11 229.14 14.27 229.17 14.29 223 23.49 223 23.49 221.21 26.15 220.05 27.89 220.04 27.88 207.76 46.11 211 46.11 224.5 25.77 238.06 46.11 241.24 46.11 226 23.49"/><polygon class="cls-2" points="355.61 1.05 353.91 3.58 366.78 3.58 366.78 46.05 369.48 46.05 369.48 3.58 380.88 3.58 382.38 1.35 382.38 1.05 355.61 1.05"/><polygon class="cls-2" points="199.35 43.7 199.35 43.65 178.47 43.65 178.47 24.87 195.21 24.87 196.83 22.47 196.83 22.35 178.47 22.35 178.47 3.58 197.82 3.58 199.35 1.3 199.35 1.11 175.77 1.11 175.77 46.11 197.72 46.11 199.35 43.7"/><polygon class="cls-2" points="310.35 43.7 310.35 43.65 289.47 43.65 289.47 24.87 306.2 24.87 307.83 22.47 307.83 22.35 289.47 22.35 289.47 3.58 308.82 3.58 310.35 1.3 310.35 1.11 286.77 1.11 286.77 46.11 308.72 46.11 310.35 43.7"/></svg>